<?xml version="1.0" standalone="no"?>
<!DOCTYPE svg PUBLIC "-//W3C//DTD SVG 20010904//EN"
 "http://www.w3.org/TR/2001/REC-SVG-20010904/DTD/svg10.dtd">
<svg version="1.0" xmlns="http://www.w3.org/2000/svg"
 width="1500.000000pt" height="165.000000pt" viewBox="0 0 1500.000000 165.000000"
 preserveAspectRatio="xMidYMid meet">

<g transform="translate(0.000000,165.000000) scale(0.100000,-0.100000)"
fill="#000000" stroke="none">
<path d="M2305 1608 c-3 -7 -4 -362 -3 -788 3 -767 3 -775 23 -775 20 0 20 7
20 785 0 740 -1 785 -18 788 -9 2 -19 -2 -22 -10z"/>
<path d="M550 1532 c-45 -22 -80 -89 -80 -153 0 -123 80 -219 182 -219 172 0
176 315 5 379 -40 15 -67 14 -107 -7z"/>
<path d="M974 1530 c-163 -83 -144 -370 25 -370 57 0 101 26 136 78 106 161
-8 370 -161 292z"/>
<path d="M200 1352 c-96 -47 -107 -217 -21 -313 65 -72 148 -82 206 -23 93 93
47 296 -78 343 -40 15 -67 14 -107 -7z"/>
<path d="M1324 1350 c-163 -83 -144 -370 25 -370 57 0 101 26 136 78 106 161
-8 370 -161 292z"/>
<path d="M5850 1310 c-18 -18 -20 -33 -20 -195 l0 -175 -51 35 c-102 70 -208
80 -316 30 -210 -97 -259 -413 -91 -585 111 -115 300 -126 421 -24 l32 27 6
-34 c12 -57 61 -77 99 -39 19 19 20 33 20 478 0 398 -2 460 -16 480 -19 28
-57 29 -84 2z m-154 -395 c27 -8 69 -31 92 -51 l42 -36 0 -147 0 -147 -27 -26
c-40 -37 -102 -66 -159 -73 -146 -20 -254 81 -254 238 0 94 17 144 65 192 62
63 143 79 241 50z"/>
<path d="M11857 1312 c-15 -17 -17 -65 -17 -484 0 -438 1 -466 18 -481 37 -34
88 -14 98 38 l6 36 34 -26 c131 -100 306 -91 418 21 145 145 134 431 -20 549
-119 91 -258 95 -382 11 l-51 -34 -3 180 c-3 164 -5 181 -22 194 -27 19 -60
18 -79 -4z m394 -393 c91 -31 139 -102 147 -214 5 -80 -8 -137 -41 -186 -73
-109 -259 -114 -369 -11 l-28 26 0 147 0 147 42 37 c67 57 171 80 249 54z"/>
<path d="M12717 1312 c-15 -17 -17 -65 -17 -484 0 -438 1 -466 18 -481 36 -32
85 -14 97 36 3 12 4 224 3 470 -3 431 -4 449 -22 463 -27 19 -60 18 -79 -4z"/>
<path d="M7671 1284 c-26 -33 -26 -55 -3 -82 41 -50 122 -24 122 39 0 65 -80
93 -119 43z"/>
<path d="M8358 1293 c-8 -10 -32 -48 -53 -86 -30 -55 -35 -70 -25 -82 7 -8 18
-15 26 -15 18 0 134 136 134 158 0 41 -54 57 -82 25z"/>
<path d="M14525 1281 c-12 -5 -26 -15 -32 -22 -21 -26 -365 -853 -365 -878 0
-26 25 -51 53 -51 32 0 57 36 100 142 l43 108 236 0 236 0 45 -111 c47 -119
70 -146 114 -135 60 15 57 25 -136 483 -99 236 -188 436 -197 445 -21 21 -70
31 -97 19z m131 -368 l90 -218 -93 -3 c-51 -1 -135 -1 -186 0 l-93 3 90 218
c50 119 93 217 96 217 3 0 47 -98 96 -217z"/>
<path d="M2917 1262 c-15 -17 -17 -63 -17 -459 0 -413 1 -441 18 -456 24 -22
55 -21 75 1 14 15 17 49 19 213 l3 194 224 3 c145 1 229 6 238 13 7 6 13 24
13 39 0 15 -6 33 -13 39 -9 7 -93 12 -238 13 l-224 3 -3 153 -3 152 244 0
c203 0 246 3 265 16 27 18 29 55 4 77 -16 15 -52 17 -304 17 -263 0 -286 -1
-301 -18z"/>
<path d="M10057 1262 c-15 -17 -17 -63 -17 -455 0 -383 2 -437 16 -451 13 -13
46 -16 207 -16 106 0 212 5 236 11 225 51 377 284 343 524 -21 147 -111 283
-230 348 -82 45 -158 57 -358 57 -163 0 -183 -2 -197 -18z m432 -111 c96 -30
166 -90 210 -181 23 -49 26 -67 26 -160 0 -99 -2 -109 -33 -172 -70 -143 -191
-197 -444 -198 l-88 0 0 365 0 365 134 0 c104 0 148 -4 195 -19z"/>
<path d="M714 1045 c-303 -66 -497 -300 -481 -580 9 -151 51 -255 130 -319 53
-42 137 -48 234 -15 59 21 86 24 203 23 113 0 145 -4 194 -22 213 -79 341 75
340 408 -1 119 -20 206 -62 283 -98 181 -328 272 -558 222z"/>
<path d="M4773 1026 c-51 -17 -101 -47 -132 -80 -33 -35 -41 -33 -41 12 0 62
-49 92 -96 58 -18 -14 -19 -31 -22 -318 -2 -187 1 -315 7 -331 13 -34 53 -45
86 -23 l25 16 0 222 0 221 46 45 c58 55 115 81 177 82 70 0 116 -25 138 -74
16 -36 19 -69 19 -263 0 -210 1 -224 20 -243 26 -26 55 -25 81 1 20 20 20 29
17 257 -3 222 -4 240 -26 287 -13 27 -33 60 -45 73 -55 59 -170 85 -254 58z"/>
<path d="M6348 1030 c-128 -23 -193 -64 -169 -108 15 -29 35 -33 88 -17 123
37 248 27 296 -23 25 -27 53 -114 42 -133 -4 -5 -59 -9 -123 -9 -180 0 -263
-29 -326 -114 -17 -22 -21 -42 -21 -100 0 -62 4 -78 27 -113 71 -107 273 -117
400 -19 44 33 48 33 48 -3 0 -55 58 -82 93 -43 15 16 17 48 17 247 0 147 -4
242 -12 267 -16 54 -88 132 -140 153 -50 20 -155 27 -220 15z m260 -441 c3
-54 1 -57 -35 -89 -53 -47 -116 -72 -182 -73 -73 0 -111 18 -134 65 -16 32
-17 44 -7 72 21 65 81 85 245 83 l110 -2 3 -56z"/>
<path d="M7165 1026 c-103 -26 -188 -93 -236 -186 -35 -69 -39 -214 -8 -295
30 -82 112 -163 194 -195 90 -34 211 -32 293 5 79 35 99 57 86 93 -13 36 -50
40 -106 10 -59 -31 -184 -32 -243 -1 -110 58 -158 179 -121 305 40 138 192
203 344 147 89 -33 108 -35 122 -9 20 38 5 66 -53 94 -90 44 -180 55 -272 32z"/>
<path d="M8223 1030 c-210 -44 -318 -276 -233 -502 55 -146 213 -228 383 -197
117 21 195 81 246 189 23 48 26 68 26 160 0 92 -3 112 -26 160 -37 78 -81 125
-152 160 -69 33 -170 46 -244 30z m184 -121 c89 -43 128 -124 122 -252 -4 -61
-10 -83 -34 -123 -84 -137 -296 -137 -380 0 -26 42 -31 61 -34 132 -3 71 0 90
22 137 26 56 74 102 124 117 53 16 134 11 180 -11z"/>
<path d="M9135 1031 c-48 -13 -108 -47 -139 -80 -38 -40 -46 -39 -46 4 0 65
-71 101 -104 53 -14 -19 -16 -68 -16 -330 0 -295 1 -309 20 -328 25 -25 55
-25 80 0 19 19 20 33 20 239 l0 218 46 42 c110 103 249 109 311 14 16 -24 18
-56 21 -262 3 -198 6 -239 19 -253 21 -23 56 -23 77 1 16 17 17 44 14 273 l-3
255 -30 49 c-41 65 -102 102 -180 108 -33 3 -73 2 -90 -3z"/>
<path d="M11234 1030 c-105 -22 -185 -87 -233 -190 -23 -48 -26 -68 -26 -160
0 -92 3 -112 26 -160 34 -73 76 -120 136 -152 121 -66 290 -55 397 27 145 110
165 387 41 533 -71 82 -222 128 -341 102z m157 -111 c97 -33 149 -116 149
-240 0 -65 -4 -85 -28 -130 -65 -125 -233 -157 -348 -67 -44 35 -74 112 -74
193 0 39 4 86 10 105 13 49 66 109 114 131 46 21 127 24 177 8z"/>
<path d="M13230 1026 c-92 -24 -153 -77 -197 -171 -26 -55 -28 -69 -28 -180 0
-111 2 -124 28 -177 47 -96 125 -150 246 -169 90 -14 194 1 271 39 45 22 56
33 58 55 4 32 -13 57 -38 57 -10 0 -38 -9 -63 -20 -61 -27 -160 -36 -227 -20
-81 19 -141 82 -161 168 l-7 32 244 0 c231 0 245 1 264 20 24 24 25 56 5 135
-32 121 -108 200 -221 230 -69 18 -113 18 -174 1z m152 -96 c72 -20 137 -102
138 -172 l0 -28 -199 0 c-110 0 -202 3 -204 8 -10 17 22 105 49 134 56 60 134
80 216 58z"/>
<path d="M3666 1011 c-16 -17 -17 -44 -14 -267 3 -281 7 -294 86 -366 93 -84
254 -68 365 36 l37 35 0 -30 c0 -74 62 -117 103 -71 15 16 17 55 17 334 0 292
-1 316 -18 331 -23 21 -52 22 -78 3 -18 -13 -19 -30 -22 -238 l-3 -223 -32
-33 c-77 -81 -194 -113 -267 -75 -69 36 -74 59 -80 326 -4 197 -8 239 -20 247
-24 15 -56 11 -74 -9z"/>
<path d="M7684 1016 c-18 -14 -19 -31 -22 -318 -2 -187 1 -315 7 -331 13 -34
53 -45 86 -23 l25 16 0 319 c0 295 -1 319 -18 334 -23 21 -52 22 -78 3z"/>
</g>
</svg>
